# Blender 4.4.3
# www.blender.org
mtllib link4.mtl
o link4
v 0.022569 0.093692 0.039557
v 0.034986 0.093760 0.029175
v 0.027804 0.100943 0.024311
v 0.043362 0.093861 0.013919
v -0.027700 0.006122 -0.124000
v -0.072380 0.054529 -0.123999
v -0.051380 0.045753 -0.123999
v 0.045213 0.001119 -0.031664
v -0.037091 -0.031832 -0.123998
v -0.028172 -0.010519 -0.124000
v -0.086144 -0.055207 -0.123968
v -0.074238 -0.054580 -0.123996
v 0.021827 0.100929 -0.029940
v -0.054846 -0.047960 -0.124009
v 0.037985 0.065264 0.036488
v 0.029027 0.084777 0.039266
v 0.026427 0.065717 0.045716
v 0.034066 0.000539 0.043607
v 0.038719 0.084476 0.029881
v -0.109295 0.048487 -0.124003
v -0.092249 0.054293 -0.124000
v 0.035207 0.100914 0.010845
v 0.016564 0.108349 0.007618
v 0.043599 0.087046 0.020237
v 0.022579 0.000558 0.050414
v -0.076570 -0.045276 -0.039825
v 0.043896 0.000521 0.033551
v 0.002049 0.100790 -0.037664
v -0.033068 0.025663 -0.123999
v 0.041340 0.066298 -0.032356
v 0.054350 0.000642 -0.010373
v 0.048737 0.065666 -0.020431
v 0.052877 0.064928 -0.001839
v 0.018624 0.086920 0.044366
v 0.045445 0.065418 0.026708
v -0.073458 -0.050559 -0.069480
v -0.068970 -0.051781 -0.088499
v 0.050405 0.000627 0.022856
v -0.122193 0.036894 -0.095532
v -0.034936 0.100886 0.012055
v -0.037027 0.100844 -0.002744
v -0.015165 0.108663 -0.009109
v -0.032575 0.100906 -0.017421
v -0.120391 0.040330 -0.123968
v -0.129090 0.029796 -0.123972
v 0.045633 0.092929 -0.004568
v 0.036704 0.100953 -0.003599
v 0.048049 0.087399 -0.003292
v 0.019177 0.108031 -0.001568
v 0.012946 0.107815 0.015115
v 0.003797 0.110758 0.007079
v 0.008852 0.110543 -0.002476
v 0.013431 0.100980 0.034342
v -0.119318 0.028643 -0.043544
v -0.041858 0.089692 0.020943
v -0.028743 0.100935 0.023039
v -0.013322 0.108975 0.009890
v -0.005765 0.108100 -0.018216
v -0.137607 0.003240 -0.123998
v -0.136655 0.007980 -0.104576
v -0.134661 0.018168 -0.123981
v -0.063776 -0.051501 -0.107927
v -0.072471 -0.053865 -0.105766
v -0.103567 -0.051060 -0.123994
v -0.113556 -0.045728 -0.123983
v 0.054037 0.000538 0.011261
v 0.055140 0.000579 0.002814
v 0.050232 0.000568 -0.023144
v -0.087198 -0.052439 -0.079611
v -0.082402 -0.053905 -0.092920
v 0.009153 0.065466 0.052080
v -0.118237 -0.018545 -0.028972
v -0.114342 -0.024115 -0.028618
v -0.031671 0.000873 0.045195
v -0.016019 0.109144 -0.001295
v 0.042435 0.092196 -0.018317
v 0.045046 0.085521 -0.018327
v 0.050572 0.066511 0.014743
v 0.047475 0.086165 0.009573
v 0.007716 0.108234 -0.017187
v -0.004346 0.111052 -0.002963
v 0.015284 0.108356 -0.010014
v -0.032778 0.090005 0.033914
v -0.121548 0.022252 -0.037507
v -0.022347 0.066152 0.047624
v -0.023522 0.000617 0.049968
v -0.010681 0.000562 0.054289
v 0.005715 0.086143 0.048166
v -0.132118 -0.024018 -0.123998
v -0.136445 -0.011417 -0.123998
v -0.125335 -0.034670 -0.124000
v 0.014950 0.000568 0.053137
v 0.004073 0.000623 0.055150
v -0.086007 -0.044819 -0.037573
v 0.031774 0.091676 -0.033860
v -0.107874 -0.032339 -0.030200
v -0.095079 -0.039772 -0.030948
v -0.031992 0.066830 0.041577
v -0.120676 0.003086 -0.026656
v -0.132852 0.017568 -0.085270
v -0.128322 0.015393 -0.052420
v -0.127220 0.023866 -0.065177
v -0.129377 0.027186 -0.095919
v -0.122010 0.033735 -0.074521
v -0.123590 -0.021113 -0.042113
v -0.126198 -0.009207 -0.036393
v -0.130713 -0.013270 -0.061180
v -0.123064 -0.017724 -0.035819
v -0.120488 -0.009549 -0.027672
v 0.038328 0.085636 -0.029774
v 0.002764 0.109876 -0.012288
v 0.032520 0.100966 -0.017150
v -0.004802 0.108757 0.016582
v -0.016175 0.100932 0.033271
v -0.001304 0.100922 0.036786
v -0.006624 0.091497 0.046218
v -0.007343 0.066949 0.052124
v -0.094255 -0.053490 -0.106407
v -0.136806 -0.003694 -0.098993
v -0.127978 -0.004448 -0.039843
v -0.130818 -0.001483 -0.052212
v -0.081036 -0.049171 -0.056624
v -0.113825 -0.032764 -0.038682
v -0.105099 -0.037803 -0.035459
v -0.097660 -0.051058 -0.085241
v -0.105004 -0.046745 -0.073322
v -0.105042 -0.049638 -0.102325
v -0.095913 -0.043246 -0.038365
v -0.125088 0.014786 -0.038043
v -0.121732 0.014315 -0.031247
v -0.135274 0.006179 -0.084244
v -0.132355 0.007006 -0.063413
v -0.127128 -0.023886 -0.064748
v 0.007130 0.093041 0.045217
v 0.004104 0.107912 0.019016
v -0.017654 0.090834 0.043502
v -0.026170 0.090543 0.039015
v -0.131688 -0.020824 -0.087091
v -0.129765 -0.027672 -0.106224
v -0.105467 -0.040228 -0.042327
v -0.127336 0.006009 -0.038252
v -0.124648 0.003327 -0.031999
v -0.118012 -0.027166 -0.036774
v -0.135538 -0.011731 -0.097306
v -0.134277 -0.004290 -0.074340
v -0.119562 -0.031530 -0.054034
v -0.124401 -0.032557 -0.082466
v -0.121956 -0.037873 -0.102260
v -0.114429 -0.042990 -0.087759
v -0.112995 -0.039425 -0.060261
v -0.133811 -0.019222 -0.107879
v -0.093721 -0.047253 -0.053071
vn 0.4165 0.7572 0.5032
vn 0.5582 0.7690 0.3115
vn -0.0000 -0.0000 -1.0000
vn 0.7612 -0.3186 -0.5648
vn -0.0025 0.0019 -1.0000
vn 0.2950 0.7060 -0.6438
vn 0.7840 -0.0222 -0.6203
vn 0.0011 -0.0005 -1.0000
vn 0.6185 0.1749 0.7661
vn 0.6244 0.0480 0.7797
vn 0.6829 0.2141 0.6984
vn 0.0001 0.0002 -1.0000
vn 0.5553 0.7743 0.3036
vn 0.3367 0.9236 0.1831
vn 0.7894 0.4319 0.4362
vn -0.0009 0.0006 -1.0000
vn 0.0004 -0.0000 -1.0000
vn 0.1707 -0.9415 0.2906
vn 0.2254 -0.9486 0.2221
vn 0.2317 0.7601 -0.6071
vn 0.7166 0.1969 -0.6691
vn 0.9753 0.0509 -0.2152
vn 0.4660 0.2259 0.8555
vn 0.7147 0.0336 0.6986
vn 0.7813 0.1760 0.5988
vn 0.7939 0.0450 0.6063
vn 0.5861 0.4016 0.7037
vn 0.6645 0.3186 0.6760
vn 0.2427 -0.9504 0.1948
vn 0.2942 -0.9468 0.1302
vn -0.6596 0.7461 0.0911
vn -0.3140 0.9222 -0.2257
vn -0.2967 0.9241 -0.2409
vn -0.7708 0.6365 0.0281
vn -0.4327 0.8925 -0.1275
vn -0.3621 0.9261 -0.1059
vn 0.7921 0.3562 0.4957
vn 0.6704 0.7406 0.0450
vn 0.9048 0.4161 0.0902
vn 0.3782 0.9248 0.0417
vn 0.3591 0.9307 0.0699
vn 0.6378 0.7672 0.0682
vn 0.2998 0.9304 0.2110
vn 0.1819 0.9805 0.0741
vn 0.3493 0.7940 0.4976
vn -0.7200 0.6462 0.2530
vn -0.3288 0.9269 0.1811
vn 0.0001 0.0001 -1.0000
vn -0.0105 0.8851 -0.4652
vn -0.0999 0.9175 -0.3850
vn -0.9811 0.1936 0.0008
vn 0.3229 -0.9460 -0.0290
vn 0.2757 -0.9594 0.0599
vn -0.0007 0.0008 -1.0000
vn 0.0011 -0.0016 -1.0000
vn 0.0526 -0.9980 0.0340
vn 0.3370 -0.9384 0.0766
vn 0.0002 0.0001 -1.0000
vn 0.4325 -0.9011 -0.0302
vn 0.5432 -0.8221 -0.1704
vn 0.8500 0.0449 -0.5249
vn 0.3152 -0.9431 0.1060
vn 0.0436 -0.9912 0.1249
vn 0.5096 0.0319 0.8598
vn 0.3375 0.1830 0.9234
vn 0.4693 0.3130 0.8257
vn 0.8536 0.0344 0.5199
vn -0.5923 0.8057 0.0051
vn -0.0013 -0.0026 -1.0000
vn -0.6357 0.7701 0.0528
vn -0.5641 -0.3469 0.7493
vn -0.3404 0.9353 0.0962
vn 0.9101 0.3445 -0.2301
vn 0.9072 0.3552 -0.2256
vn 0.8946 0.1964 0.4013
vn 0.8463 0.2177 0.4862
vn 0.9209 0.2282 0.3159
vn 0.8974 0.4335 0.0816
vn 0.9757 0.1848 0.1180
vn -0.2248 0.9304 -0.2895
vn 0.1388 0.9178 -0.3721
vn -0.0869 0.9912 0.0995
vn 0.2419 0.9675 -0.0742
vn -0.6401 0.6799 0.3578
vn -0.6276 0.6532 0.4236
vn -0.7422 0.4358 0.5091
vn -0.3185 0.0396 0.9471
vn 0.2631 0.2215 0.9390
vn -0.0001 0.0008 -1.0000
vn -0.0002 0.0005 -1.0000
vn -0.0000 0.0011 -1.0000
vn 0.2651 -0.9641 0.0121
vn -0.0001 0.0001 -1.0000
vn 0.0671 -0.9195 0.3874
vn 0.0510 -0.9155 0.3991
vn 0.1205 -0.9323 0.3411
vn 0.3534 0.6605 -0.6625
vn 0.7852 0.0401 -0.6179
vn 0.7221 -0.5178 -0.4588
vn 0.6358 -0.6997 -0.3257
vn 0.9906 0.0442 0.1296
vn 0.9511 0.0346 -0.3068
vn 0.9556 0.2005 -0.2159
vn 0.9594 0.1928 -0.2060
vn -0.0230 -0.8887 0.4579
vn -0.3535 -0.6738 0.6489
vn -0.4796 -0.5140 0.7112
vn -0.4207 -0.5931 0.6865
vn -0.1046 -0.8549 0.5081
vn 0.0503 -0.9981 0.0358
vn 0.9538 0.0343 0.2985
vn 0.3447 0.0472 0.9375
vn 0.2745 -0.9486 0.1576
vn -0.6858 0.2074 0.6976
vn -0.9256 0.3472 0.1506
vn -0.8020 0.5897 0.0956
vn -0.9258 -0.3081 0.2191
vn -0.9143 -0.3197 0.2486
vn -0.6276 -0.0717 0.7752
vn -0.5944 -0.2587 0.7615
vn -0.6270 0.0396 0.7780
vn -0.3699 0.9277 0.0497
vn 0.8376 0.1984 -0.5091
vn 0.9012 0.3112 0.3018
vn -0.1718 0.9819 -0.0792
vn 0.1595 0.9733 -0.1651
vn 0.1397 0.9765 -0.1640
vn 0.3611 0.9260 -0.1106
vn 0.3471 0.9296 -0.1242
vn 0.2398 0.9328 -0.2689
vn -0.0807 0.9876 0.1349
vn 0.2336 0.9718 0.0327
vn -0.0876 0.9236 0.3733
vn -0.1540 0.7410 0.6536
vn -0.2360 0.9274 0.2902
vn -0.2081 0.9325 0.2953
vn -0.2892 0.0457 0.9562
vn 0.3902 -0.9206 0.0139
vn -0.2315 -0.9728 -0.0118
vn -0.9986 0.0325 0.0410
vn -0.9708 -0.1507 0.1867
vn 0.0004 -0.0010 -1.0000
vn 0.0396 -0.9907 0.1302
vn 0.1820 0.0323 0.9828
vn 0.5161 0.4704 -0.7158
vn 0.6765 0.2707 -0.6849
vn 0.7151 0.2008 -0.6696
vn 0.0171 0.9382 -0.3458
vn 0.8620 0.0409 -0.5052
vn 0.9977 0.0308 -0.0596
vn 0.0069 0.0468 0.9989
vn -0.5654 -0.7028 0.4319
vn -0.3891 -0.9166 0.0919
vn -0.1955 -0.7974 0.5709
vn -0.3562 -0.8302 0.4289
vn 0.9166 0.0466 0.3970
vn 0.9900 0.0450 0.1334
vn -0.8261 0.3607 0.4330
vn -0.7418 0.4258 0.5181
vn -0.9678 0.2172 0.1270
vn -0.8492 0.4876 0.2025
vn -0.8281 0.5482 0.1173
vn -0.6760 0.7279 0.1153
vn -0.8895 0.4435 0.1103
vn -0.8038 0.5930 0.0469
vn -0.9532 0.2632 0.1489
vn -0.9730 0.2146 0.0851
vn -0.9098 -0.3703 0.1876
vn -0.1539 0.9867 0.0520
vn -0.3600 0.9280 -0.0964
vn 0.8443 0.2092 -0.4934
vn 0.9748 0.2136 0.0640
vn -0.0772 0.9802 -0.1825
vn -0.1144 0.9773 -0.1785
vn 0.2933 0.9233 -0.2478
vn 0.5162 0.7386 -0.4337
vn 0.2085 0.7284 0.6526
vn 0.2940 0.4337 0.8518
vn 0.2470 0.3376 0.9083
vn 0.2265 0.9195 0.3212
vn 0.1547 0.9321 0.3275
vn -0.0295 0.7153 0.6982
vn 0.1004 0.7750 0.6239
vn -0.2910 0.2112 0.9331
vn -0.5285 0.0439 0.8478
vn -0.5041 0.0399 0.8627
vn -0.0513 0.2350 0.9706
vn -0.3556 0.6904 0.6301
vn -0.4691 0.7039 0.5334
vn -0.4384 0.7195 0.5387
vn 0.1248 -0.9878 0.0934
vn -0.9584 0.2811 0.0491
vn -0.9231 -0.3585 0.1393
vn -0.8435 -0.5371 0.0013
vn 0.1271 -0.9875 0.0934
vn 0.1409 -0.9720 0.1879
vn 0.6449 0.7404 -0.1895
vn 0.6367 0.7458 -0.1959
vn 0.0196 0.1891 0.9818
vn -0.0584 0.0355 0.9977
vn -0.5580 -0.7727 0.3027
vn -0.3937 -0.7334 0.5543
vn -0.4707 -0.8819 0.0258
vn 0.3358 0.0453 0.9408
vn -0.9219 -0.0216 0.3869
vn -0.8956 -0.0126 0.4446
vn -0.6903 0.2172 0.6901
vn -0.9963 0.0472 0.0718
vn -0.9457 0.2368 0.2227
vn -0.7403 0.5798 0.3403
vn -0.7995 0.5777 0.1645
vn -0.8206 -0.4717 0.3226
vn 0.5740 0.7045 -0.4173
vn 0.7317 0.4444 -0.5168
vn 0.8183 0.3208 -0.4770
vn 0.0387 0.9993 -0.0021
vn 0.0418 0.9947 -0.0935
vn 0.1111 0.9674 0.2278
vn 0.0290 0.9725 0.2311
vn 0.0596 0.9226 0.3811
vn -0.6063 0.2311 0.7610
vn -0.4597 0.2307 0.8576
vn -0.5079 0.2148 0.8342
vn -0.2457 0.2335 0.9408
vn -0.2082 0.7110 0.6717
vn -0.9014 0.4319 0.0309
vn -0.9968 -0.0790 0.0100
vn -0.9883 -0.1492 0.0318
vn -0.9948 0.0018 0.1021
vn -0.9757 -0.1380 0.1700
vn -0.9560 -0.2068 0.2080
vn -0.7415 -0.6316 0.2263
vn -0.8048 -0.5543 0.2124
vn -0.8196 -0.5391 0.1941
vn -0.8631 -0.4932 0.1086
vn -0.6845 -0.7291 -0.0010
vn -0.8003 -0.5985 0.0362
vn -0.8037 -0.5920 0.0597
vn -0.3437 -0.9376 0.0524
vn -0.2848 -0.9576 0.0434
vn -0.4816 -0.8720 0.0876
vn -0.5964 -0.7732 0.2157
vn -0.6912 -0.7148 0.1066
vn -0.9730 0.0249 0.2294
vn -0.7874 0.1684 0.5930
vn -0.9765 0.0847 0.1981
vn -0.9593 0.2000 0.1993
vn -0.8819 0.4242 0.2055
vn -0.8880 0.4056 0.2168
vn -0.7042 0.6883 0.1744
vn -0.9208 0.3870 0.0490
vn -0.8117 -0.2636 0.5212
vn -0.8007 -0.2771 0.5312
vn 0.0139 0.9522 -0.3052
vn 0.1769 0.9720 0.1546
vn -0.0109 0.9317 0.3632
vn 0.0233 0.3889 0.9210
vn 0.3666 -0.9294 0.0434
vn -0.9458 -0.3248 -0.0027
vn -0.6733 -0.7133 0.1943
vn -0.8618 -0.4989 0.0919
vn -0.4045 -0.8554 0.3236
vn -0.3675 -0.9098 0.1931
vn -0.3738 -0.9088 0.1855
vn -0.7016 -0.6977 0.1446
vn -0.6834 -0.7186 0.1288
vn -0.8033 -0.5744 0.1575
vn -0.9882 0.0214 0.1518
vn -0.8350 -0.0872 0.5433
vn -0.9039 -0.4266 0.0320
vn -0.1750 -0.8839 0.4337
vn -0.1708 -0.9568 0.2352
vn -0.5393 -0.8311 0.1359
vn -0.6187 -0.7844 0.0444
vn -0.5225 -0.8511 0.0518
vn -0.9899 0.0356 0.1373
vn -0.9547 -0.2741 0.1158
vn -0.8024 -0.0597 0.5939
vn -0.1401 -0.9884 0.0583
vn -0.0804 -0.9949 0.0602
vn -0.7231 -0.4738 0.5026
vn -0.7538 -0.4516 0.4772
vn -0.4986 -0.8498 0.1712
vn -0.2030 -0.9692 0.1395
vn -0.8666 0.1987 0.4577
vn -0.8703 0.2122 0.4445
vn -0.9640 -0.2641 0.0297
vn -0.9706 -0.2082 0.1208
vn -0.9449 -0.3193 0.0719
vn -0.9048 -0.4216 0.0599
vn -0.3097 -0.9391 0.1490
vn -0.1750 -0.9809 0.0845
vn -0.9860 -0.1350 0.0979
vn -0.0918 -0.9757 0.1989
vn 0.0064 -0.9745 0.2243
vn -0.6233 -0.6259 0.4687
vn -0.6290 -0.5917 0.5043
vn -0.1016 -0.9808 0.1667
s 0
f 1//1 2//1 3//1
f 3//2 2//2 4//2
f 5//3 6//3 7//3
f 8//4 9//4 10//4
f 11//5 5//5 12//5
f 7//6 6//6 13//6
f 5//7 8//7 10//7
f 14//8 10//8 9//8
f 15//9 16//9 17//9
f 15//10 17//10 18//10
f 15//11 19//11 16//11
f 20//12 21//12 5//12
f 22//13 3//13 4//13
f 23//14 3//14 22//14
f 2//15 24//15 4//15
f 14//16 12//16 5//16
f 14//17 5//17 10//17
f 25//18 26//18 18//18
f 27//19 18//19 26//19
f 6//20 28//20 13//20
f 29//21 30//21 5//21
f 31//22 32//22 33//22
f 16//23 34//23 17//23
f 15//24 18//24 27//24
f 15//25 35//25 19//25
f 35//26 15//26 27//26
f 1//27 16//27 2//27
f 16//28 19//28 2//28
f 27//29 26//29 36//29
f 36//30 37//30 38//30
f 39//31 40//31 41//31
f 42//32 21//32 20//32
f 20//33 43//33 42//33
f 39//34 44//34 45//34
f 20//35 41//35 43//35
f 41//36 42//36 43//36
f 19//37 24//37 2//37
f 4//38 46//38 47//38
f 46//39 4//39 48//39
f 49//40 22//40 47//40
f 22//41 49//41 23//41
f 22//42 4//42 47//42
f 3//43 23//43 50//43
f 51//44 23//44 52//44
f 53//45 1//45 3//45
f 40//46 54//46 55//46
f 56//47 57//47 40//47
f 6//48 5//48 21//48
f 6//49 21//49 28//49
f 28//50 21//50 58//50
f 59//51 60//51 61//51
f 12//52 14//52 62//52
f 63//53 62//53 37//53
f 64//54 65//54 5//54
f 5//55 11//55 64//55
f 11//56 12//56 63//56
f 37//57 62//57 66//57
f 7//58 29//58 5//58
f 14//59 31//59 67//59
f 68//60 31//60 14//60
f 32//61 8//61 30//61
f 66//62 38//62 37//62
f 69//63 70//63 36//63
f 18//64 17//64 25//64
f 17//65 34//65 71//65
f 1//66 34//66 16//66
f 35//67 27//67 38//67
f 20//68 44//68 41//68
f 20//69 5//69 44//69
f 44//70 39//70 41//70
f 72//71 73//71 74//71
f 75//72 40//72 57//72
f 48//73 76//73 46//73
f 48//74 77//74 76//74
f 24//75 35//75 78//75
f 24//76 19//76 35//76
f 79//77 24//77 78//77
f 79//78 48//78 4//78
f 79//79 78//79 33//79
f 42//80 58//80 21//80
f 80//81 13//81 28//81
f 57//82 51//82 81//82
f 52//83 49//83 82//83
f 56//84 40//84 55//84
f 83//85 56//85 55//85
f 84//86 83//86 55//86
f 85//87 86//87 87//87
f 88//88 71//88 34//88
f 5//89 61//89 45//89
f 5//90 45//90 44//90
f 59//91 61//91 5//91
f 12//92 62//92 63//92
f 89//3 90//3 5//3
f 89//93 5//93 91//93
f 26//94 92//94 93//94
f 93//95 94//95 26//95
f 26//96 25//96 92//96
f 7//97 13//97 95//97
f 30//98 8//98 5//98
f 68//99 9//99 8//99
f 68//100 14//100 9//100
f 67//101 33//101 66//101
f 31//102 68//102 32//102
f 77//103 48//103 32//103
f 32//104 48//104 33//104
f 93//105 87//105 94//105
f 96//106 97//106 86//106
f 73//107 96//107 74//107
f 96//108 86//108 74//108
f 97//109 94//109 87//109
f 70//110 11//110 63//110
f 78//111 38//111 66//111
f 71//112 25//112 17//112
f 36//113 38//113 27//113
f 98//114 83//114 99//114
f 100//115 101//115 102//115
f 103//116 104//116 39//116
f 105//117 106//117 107//117
f 108//118 106//118 105//118
f 74//119 99//119 109//119
f 109//120 72//120 74//120
f 99//121 74//121 98//121
f 40//122 75//122 41//122
f 110//123 32//123 30//123
f 79//124 4//124 24//124
f 81//125 42//125 75//125
f 52//126 80//126 111//126
f 52//127 82//127 80//127
f 49//128 47//128 112//128
f 82//129 49//129 112//129
f 13//130 80//130 82//130
f 57//131 113//131 51//131
f 23//132 49//132 52//132
f 114//133 115//133 113//133
f 114//134 116//134 115//134
f 114//135 57//135 56//135
f 114//136 113//136 57//136
f 117//137 85//137 87//137
f 62//138 14//138 67//138
f 118//139 64//139 11//139
f 119//140 60//140 59//140
f 120//141 121//141 107//141
f 91//142 5//142 65//142
f 36//143 122//143 69//143
f 93//144 92//144 71//144
f 95//145 29//145 7//145
f 29//146 95//146 110//146
f 110//147 30//147 29//147
f 80//148 28//148 58//148
f 68//149 8//149 32//149
f 67//150 31//150 33//150
f 93//151 71//151 117//151
f 123//152 124//152 96//152
f 125//153 126//153 127//153
f 97//154 87//154 86//154
f 128//155 97//155 124//155
f 35//156 38//156 78//156
f 78//157 66//157 33//157
f 84//158 129//158 130//158
f 130//159 83//159 84//159
f 100//160 131//160 132//160
f 54//161 102//161 84//161
f 103//162 102//162 104//162
f 39//163 104//163 40//163
f 103//164 100//164 102//164
f 45//165 103//165 39//165
f 132//166 101//166 100//166
f 100//167 60//167 131//167
f 133//168 105//168 107//168
f 75//169 57//169 81//169
f 41//170 75//170 42//170
f 32//171 110//171 77//171
f 48//172 79//172 33//172
f 81//173 111//173 58//173
f 58//174 42//174 81//174
f 112//175 13//175 82//175
f 95//176 13//176 112//176
f 134//177 1//177 53//177
f 134//178 34//178 1//178
f 88//179 34//179 134//179
f 50//180 53//180 3//180
f 53//181 50//181 135//181
f 115//182 116//182 134//182
f 115//183 134//183 53//183
f 117//184 136//184 85//184
f 85//185 98//185 74//185
f 74//186 86//186 85//186
f 117//187 88//187 116//187
f 114//188 137//188 136//188
f 137//189 56//189 83//189
f 137//190 114//190 56//190
f 63//191 36//191 70//191
f 60//192 100//192 61//192
f 133//193 107//193 138//193
f 139//194 89//194 91//194
f 63//195 37//195 36//195
f 122//196 36//196 26//196
f 76//197 47//197 46//197
f 112//198 47//198 76//198
f 117//199 71//199 88//199
f 87//200 93//200 117//200
f 124//201 123//201 140//201
f 97//202 96//202 124//202
f 127//203 65//203 64//203
f 25//204 71//204 92//204
f 141//205 106//205 142//205
f 120//206 106//206 141//206
f 130//207 99//207 83//207
f 60//208 119//208 131//208
f 141//209 129//209 101//209
f 55//210 54//210 84//210
f 54//211 104//211 102//211
f 105//212 143//212 108//212
f 95//213 112//213 76//213
f 76//214 110//214 95//214
f 77//215 110//215 76//215
f 51//216 52//216 81//216
f 81//217 52//217 111//217
f 135//218 50//218 51//218
f 51//219 113//219 135//219
f 135//220 115//220 53//220
f 98//221 137//221 83//221
f 137//222 85//222 136//222
f 137//223 98//223 85//223
f 116//224 136//224 117//224
f 116//225 114//225 136//225
f 61//226 103//226 45//226
f 90//3 59//3 5//3
f 90//227 119//227 59//227
f 144//228 119//228 90//228
f 145//229 131//229 119//229
f 107//230 121//230 145//230
f 120//231 107//231 106//231
f 143//232 146//232 123//232
f 146//233 143//233 105//233
f 146//234 105//234 133//234
f 147//235 133//235 138//235
f 148//236 91//236 65//236
f 139//237 91//237 148//237
f 147//238 139//238 148//238
f 125//239 64//239 118//239
f 127//240 64//240 125//240
f 126//241 149//241 127//241
f 150//242 140//242 123//242
f 147//243 148//243 149//243
f 141//244 121//244 120//244
f 142//245 99//245 130//245
f 121//246 141//246 132//246
f 132//247 141//247 101//247
f 101//248 84//248 102//248
f 101//249 129//249 84//249
f 54//250 40//250 104//250
f 103//251 61//251 100//251
f 108//252 109//252 106//252
f 109//253 108//253 72//253
f 58//254 111//254 80//254
f 23//255 51//255 50//255
f 115//256 135//256 113//256
f 116//257 88//257 134//257
f 62//258 67//258 66//258
f 89//259 151//259 90//259
f 146//260 150//260 123//260
f 138//261 139//261 147//261
f 124//262 140//262 128//262
f 128//263 140//263 152//263
f 152//264 140//264 126//264
f 147//265 150//265 146//265
f 147//266 149//266 150//266
f 147//267 146//267 133//267
f 132//268 145//268 121//268
f 109//269 142//269 106//269
f 89//270 139//270 151//270
f 97//271 128//271 94//271
f 128//272 152//272 94//272
f 150//273 149//273 126//273
f 65//274 149//274 148//274
f 65//275 127//275 149//275
f 131//276 145//276 132//276
f 107//277 144//277 138//277
f 142//278 109//278 99//278
f 11//279 70//279 69//279
f 69//280 118//280 11//280
f 72//281 143//281 73//281
f 143//282 72//282 108//282
f 126//283 140//283 150//283
f 152//284 125//284 69//284
f 130//285 141//285 142//285
f 130//286 129//286 141//286
f 151//287 144//287 90//287
f 107//288 145//288 144//288
f 138//289 144//289 151//289
f 139//290 138//290 151//290
f 126//291 125//291 152//291
f 69//292 125//292 118//292
f 144//293 145//293 119//293
f 94//294 152//294 122//294
f 94//295 122//295 26//295
f 96//296 143//296 123//296
f 143//297 96//297 73//297
f 152//298 69//298 122//298
